<svg width="80" height="80" viewBox="0 0 80 80" fill="none" xmlns="http://www.w3.org/2000/svg">
<path d="M48.4734 15.9737C44.8869 15.9737 41.0815 14.9449 37.5723 16.2784C35.4824 17.0725 33.1816 17.3856 31.4107 18.7836C29.3839 20.3837 27.4744 22.5903 25.9432 24.6574C21.4287 30.752 18.3899 39.3952 19.2908 47.0522C19.5722 49.4447 19.9713 51.8689 21.4913 53.8232C23.4084 56.288 26.0521 57.5553 28.2961 59.6123C30.0776 61.2453 32.4722 62.4373 34.7285 63.2686C38.4199 64.6286 42.8073 65.9378 46.7638 66.2309C48.3358 66.3473 49.9441 66.2478 51.5204 66.2478C53.0745 66.2478 52.2393 65.4054 51.5204 64.7243C48.9979 62.3346 47.102 59.327 44.4955 56.9378C43.3392 55.8778 42.2439 54.3454 41.1778 53.1461C40.2632 52.1172 39.3936 50.7782 38.8926 49.4898C38.0376 47.2913 37.2741 44.453 37.877 42.0418C38.456 39.7255 39.316 37.1343 41.1608 35.474C41.9233 34.7877 43.0432 34.1991 43.9031 33.5781C44.7835 32.9423 45.6572 32.5385 46.3406 31.6653C46.939 30.9008 47.6288 30.0171 48.4904 29.5325C50.3045 28.512 52.4801 27.5063 54.3811 26.6718C56.0884 25.9222 57.8905 25.0609 59.764 24.8267C60.5444 24.7291 61.3648 24.706 62.1169 24.4374C62.6143 24.2597 62.8621 23.7658 63.3864 23.591C64.8843 23.0917 62.6258 21.3457 62.0491 21.1535C58.9026 20.1046 55.425 19.8403 52.3329 18.7159C51.6093 18.4528 50.6088 17.8019 49.8446 17.8019C48.5588 17.8019 47.1401 16.8878 45.7312 16.8878" stroke="black" stroke-width="3" stroke-linecap="round"/>
</svg>
