<svg width="80" height="80" viewBox="0 0 80 80" fill="none" xmlns="http://www.w3.org/2000/svg">
<path d="M27.4745 21.4582C25.7878 21.4582 22.9282 23.1801 22.3624 24.8775C21.1598 28.4854 25.5322 29.3801 28.0839 29.3801C31.0568 29.3801 31.7402 27.1392 31.7402 24.6236C31.7402 22.0796 31.8617 21.7629 29.3026 21.7629" stroke="black" stroke-width="3" stroke-linecap="round"/>
<path d="M47.2794 22.3722C44.4757 21.1261 42.008 23.4225 42.0997 26.2655C42.1641 28.2615 46.59 29.1753 47.9565 29.6171C49.4783 30.1091 53.2806 31.4517 54.8967 30.4127C56.3662 29.468 57.5324 25.2602 55.7939 24.065C53.9563 22.8016 51.1533 23.6781 49.717 25.1145" stroke="black" stroke-width="3" stroke-linecap="round"/>
<path d="M35.3965 37.3021C35.2104 39.163 34.8665 40.5822 35.7519 42.3972C36.9483 44.8498 38.5827 47.22 41.4903 47.0523C44.232 46.8941 46.3313 40.0443 42.7091 40.0443" stroke="black" stroke-width="3" stroke-linecap="round"/>
<path d="M29.912 14.7549C27.7983 14.0504 25.757 14.1456 23.5473 14.1456C20.1867 14.1456 18.1666 15.9786 16.6918 19.0376C13.2299 26.2178 15.4342 33.0908 18.5707 39.8412C19.6676 42.202 20.7696 44.4734 22.9718 46.0028C26.5739 48.5042 30.8993 49.771 35.1595 50.5393C39.0878 51.2477 43.3759 51.7457 47.2964 50.8101C51.2678 49.8624 56.9116 48.3852 59.7718 45.2072C62.5812 42.0856 64.6486 37.9539 63.3604 33.7135C61.2747 26.8482 57.2691 20.2278 51.2743 16.1599C49.4467 14.9198 47.327 14.6812 45.3497 13.8409C42.6731 12.7033 40.0724 11.5366 37.1569 11.1664C34.3562 10.8107 28.3886 11.391 28.3886 15.0596" stroke="black" stroke-width="3" stroke-linecap="round"/>
<path d="M26.5604 50.7085C25.1477 55.2605 23.7939 59.9521 22.7856 64.6059C22.6447 65.2563 21.8931 66.9203 22.0408 67.5851C22.2392 68.4777 24.0587 65.7393 24.1229 65.6384" stroke="black" stroke-width="3" stroke-linecap="round"/>
<path d="M36.9199 52.5367C37.2575 53.887 38.1234 54.985 38.3757 56.43C38.7255 58.4337 39.6779 60.4069 40.2038 62.3884C40.8337 64.7616 41.3479 67.1755 42.032 69.5317C42.2185 70.174 42.1951 70.1134 42.7091 69.5994" stroke="black" stroke-width="3" stroke-linecap="round"/>
<path d="M52.7639 53.4508C54.742 57.407 56.9267 60.9258 59.5348 64.5043C60.2025 65.4204 60.6486 66.7861 61.4476 67.5851C61.9512 68.0886 61.9046 65.0807 61.9046 64.7244" stroke="black" stroke-width="3" stroke-linecap="round"/>
<path d="M63.4281 51.6226C65.0433 50.9048 66.8822 51.0132 68.6078 51.0132C69.4213 51.0132 70.7924 51.2662 71.3501 50.7085" stroke="black" stroke-width="3" stroke-linecap="round"/>
<path d="M57.0296 15.669C56.1482 15.7669 57.0701 16.0066 57.5205 15.9399C60.1838 15.5453 63.0293 13.7167 65.2901 12.3682C67.3748 11.1247 68.9614 9.33621 70.673 7.64548C71.4436 6.88426 72.4421 5.65644 73.4829 5.30951" stroke="black" stroke-width="3" stroke-linecap="round"/>
<path d="M62.2093 23.2863C62.3907 24.7377 67.8834 21.5834 68.7771 21.1535C71.1695 20.0027 74.666 19.0563 76.5298 17.1925" stroke="black" stroke-width="3" stroke-linecap="round"/>
<path d="M21.99 11.0987C21.7106 10.1674 19.755 9.59571 19.0447 9.27051C17.1374 8.39728 15.1456 7.70924 13.3571 6.59599C12.098 5.81226 10.0076 4.70322 9.19299 3.48137" stroke="black" stroke-width="3" stroke-linecap="round"/>
<path d="M11.6305 26.3332C10.3679 27.4696 8.51126 28.5625 6.78931 28.7538C5.89743 28.8529 5.16461 28.5672 4.62262 29.3801" stroke="black" stroke-width="3" stroke-linecap="round"/>
<path d="M14.9821 45.8335C11.6964 45.8335 8.29128 46.7462 5.19815 47.797C3.83085 48.2616 1.8804 49.0098 1.8804 50.7085" stroke="black" stroke-width="3" stroke-linecap="round"/>
</svg>
